<svg width="13" height="10" viewBox="0 0 13 10" fill="none" xmlns="http://www.w3.org/2000/svg">
<path fill-rule="evenodd" clip-rule="evenodd" d="M10.8638 0.945649C11.3749 1.08591 11.7775 1.4992 11.9141 2.02404C12.1624 2.97525 12.1624 4.95996 12.1624 4.95996C12.1624 4.95996 12.1624 6.9446 11.9141 7.89588C11.7775 8.42072 11.3749 8.83401 10.8638 8.97434C9.93744 9.22919 6.22257 9.22919 6.22257 9.22919C6.22257 9.22919 2.5077 9.22919 1.5813 8.97434C1.07014 8.83401 0.66758 8.42072 0.530965 7.89588C0.282776 6.9446 0.282776 4.95996 0.282776 4.95996C0.282776 4.95996 0.282776 2.97525 0.530965 2.02404C0.66758 1.4992 1.07014 1.08591 1.5813 0.945649C2.5077 0.690735 6.22257 0.690735 6.22257 0.690735C6.22257 0.690735 9.93744 0.690735 10.8638 0.945649ZM5.10887 3.28935V7.00173L8.07877 5.14561L5.10887 3.28935Z" fill="white"/>
</svg>
