<svg width="13" height="13" viewBox="0 0 13 13" fill="none" xmlns="http://www.w3.org/2000/svg">
<path fill-rule="evenodd" clip-rule="evenodd" d="M12.3397 6.76609C12.3397 7.16779 12.2988 7.56893 12.2184 7.95994C12.1401 8.34167 12.0241 8.71644 11.8721 9.0747C11.7236 9.42662 11.5395 9.76575 11.3242 10.082C11.1122 10.3963 10.868 10.6911 10.5997 10.9599C10.3308 11.2275 10.035 11.471 9.72088 11.6839C9.40358 11.8977 9.06396 12.0816 8.71183 12.2308C8.35306 12.3819 7.97742 12.4978 7.59602 12.576C7.20449 12.6565 6.80189 12.6976 6.39961 12.6976C5.99703 12.6976 5.59445 12.6565 5.20347 12.576C4.82149 12.4978 4.44588 12.3819 4.08738 12.2308C3.73528 12.0816 3.39533 11.8977 3.07803 11.6839C2.76391 11.4711 2.46807 11.2275 2.19978 10.9599C1.93121 10.6911 1.68698 10.3963 1.47467 10.082C1.26061 9.76575 1.07613 9.4266 0.927061 9.0747C0.77506 8.71644 0.658769 8.34165 0.580164 7.95994C0.500699 7.56893 0.460083 7.16779 0.460083 6.76609C0.460083 6.36409 0.500676 5.9621 0.580187 5.57194C0.658792 5.19021 0.775083 4.81486 0.927085 4.45718C1.07616 4.105 1.26064 3.76557 1.47469 3.44928C1.687 3.13476 1.93123 2.84048 2.1998 2.57142C2.46809 2.30379 2.76394 2.06082 3.07805 1.84823C3.39536 1.63361 3.7353 1.44972 4.08741 1.30026C4.44591 1.14875 4.82149 1.03263 5.2035 0.955022C5.59447 0.875091 5.99705 0.834534 6.39963 0.834534C6.80191 0.834534 7.20449 0.875091 7.59605 0.955022C7.97745 1.03265 8.35306 1.14878 8.71186 1.30026C9.06396 1.4497 9.40361 1.63361 9.72091 1.84823C10.035 2.06082 10.3309 2.30379 10.5997 2.57142C10.868 2.84048 11.1123 3.13476 11.3243 3.44928C11.5395 3.76557 11.7236 4.10503 11.8721 4.45718C12.0241 4.81486 12.1401 5.19021 12.2184 5.57194C12.2988 5.9621 12.3397 6.36409 12.3397 6.76609ZM4.23527 2.18448C2.82072 2.8515 1.76496 4.15307 1.43575 5.72169C1.56948 5.72285 3.68332 5.7495 6.11881 5.10333C5.24086 3.54571 4.30286 2.27458 4.23527 2.18448ZM6.53908 5.88332C3.92725 6.66412 1.42096 6.60794 1.33106 6.60448C1.3296 6.65892 1.32699 6.71162 1.32699 6.76609C1.32699 8.06736 1.81861 9.25366 2.62668 10.1507C2.62493 10.148 4.01311 7.68883 6.75053 6.8049C6.81665 6.78289 6.88396 6.76318 6.95066 6.74408C6.82335 6.45621 6.68439 6.16773 6.53908 5.88332ZM9.7496 2.96445C8.85654 2.1781 7.68391 1.70111 6.39959 1.70111C5.98743 1.70111 5.58746 1.75093 5.20432 1.84303C5.28029 1.94499 6.23311 3.20717 7.10062 4.79777C9.01463 4.08125 9.73712 2.98298 9.7496 2.96445ZM7.29643 7.58341C7.28513 7.58715 7.27383 7.59038 7.26279 7.59442C4.26987 8.63628 3.2925 10.7359 3.28192 10.7589C4.14308 11.4276 5.22321 11.8311 6.39963 11.8311C7.10209 11.8311 7.77122 11.6882 8.38002 11.4296C8.3049 10.9871 8.01022 9.43586 7.29643 7.58341ZM9.23419 10.9668C10.3732 10.1993 11.1821 8.98058 11.4078 7.5689C11.3033 7.53531 9.88416 7.08667 8.24686 7.3488C8.91222 9.17462 9.18256 10.6616 9.23419 10.9668ZM7.49106 5.55255C7.60879 5.7941 7.7228 6.03995 7.82808 6.28704C7.86551 6.37567 7.90205 6.46257 7.93772 6.54944C9.6803 6.33047 11.3971 6.69888 11.4705 6.71392C11.4589 5.51315 11.0287 4.41112 10.317 3.54834C10.3074 3.56192 9.49382 4.73578 7.49106 5.55255Z" fill="white"/>
</svg>
